<?xml version="1.0" encoding="UTF-8"?><svg id="Layer_1" xmlns="http://www.w3.org/2000/svg" viewBox="0 0 133.8 219.43"><defs><style>.cls-1{fill:#e6985c;}.cls-1,.cls-2,.cls-3,.cls-4,.cls-5,.cls-6,.cls-7,.cls-8,.cls-9,.cls-10{stroke-width:0px;}.cls-2{fill:#ecbf93;}.cls-3{fill:#e7a876;}.cls-4{fill:#f0893c;}.cls-5{fill:#e69152;}.cls-6{fill:#fcf2e0;}.cls-7{fill:#282627;}.cls-8{fill:#e5985b;}.cls-9{fill:#e6995d;}.cls-10{fill:#e39458;}</style></defs><path class="cls-4" d="M80.69,98.79c1.15,2.19,2.6,4.28,3.4,6.6,2.57,7.48,5.8,14.53,11.57,20.16.71.69,1.4,1.42,2.15,2.06,6.15,5.3,8.92,5.33,14.25-.61,8.55-9.53,12.72-20.62,10.78-33.54-1.05-6.98-4.15-12.45-12.42-14.06,2.35-3.77,4.49-7.2,6.63-10.63.31-.5.61-1,.92-1.51,0,0-.03.03-.03.03.45-.87.91-1.74,1.36-2.61,0,0,.08-.29.08-.29.27-.54.54-1.08.8-1.62,0,0-.03.04-.02.04.41-1.45.81-2.9,1.21-4.35-.04-.78-.08-1.56-.11-2.33-.64-.88-1.11-2.26-1.94-2.51-1.43-.44-3.07-.17-4.62-.2,0,0-.32-.04-.32-.04-.63-.25-1.25-.49-1.88-.74l-.2.05s-.17-.12-.17-.12c-.98-.36-1.97-.71-2.95-1.07-.5-.13-1-.26-1.5-.39-1.48-.31-3.04-.4-4.4-.99-.97-.42-1.66-1.49-2.47-2.27,0,0-.01.03-.01.03.26-.29.52-.59.77-.88.21-.23.42-.46.64-.69.81-.46,1.62-.91,2.44-1.37.22-.07.43-.09.66-.06,1.12.35,2.23.7,3.35,1.05,1.02.27,2.04.78,3.06.77,3.44-.05,6.96-.83,10.3-.32,5.78.88,8.62,5.14,7.44,10.83-1.98,9.56.32,18.81,1.46,28.17,1.09,9,2.45,18.03,2.61,27.06.38,21.17.35,42.36-.04,63.54-.13,7.02-1.34,14.13-2.94,20.99-1.73,7.42-5.74,13.81-12.11,18.32-6.74,4.77-14.07,5.29-21.65,2.28-1.64-.65-3.06-1.84-4.44-2.99,16.21,2.6,21.64-6.26,25.65-17.62,3.2-9.06,4.01-16.36,2.83-21.96-1.83,4.24-3.38,8.11-5.15,11.88-3.4,7.26-7.42,14.12-13.55,19.48-4.95,4.33-10.69,5.92-18.2,5.02,12.76-6.73,18.04-18.29,23.65-29.61.41-.82.81-1.64,1.22-2.46.07-.19.14-.39.22-.58.14-.29.29-.59.43-.88.09-.21.19-.43.29-.63.11-.28.22-.56.33-.84.15-.42.3-.84.45-1.25.18-.18.25-.39.21-.64.17-.48.34-.96.51-1.44.31-.79.63-1.58.94-2.38.07-.22.16-.43.27-.63.54-.02,1.09-.04,1.63-.07-.11,1.41-.22,2.82-.33,4.22-.33,1.74-.65,3.48-.98,5.23l1.05.19c.42-1.77.84-3.54,1.26-5.3,2.12-10.62,2.48-21.46.66-27.13-2.66,7.81-6.85,13.84-13.99,17.24-6.92,3.3-14.07,5.29-21.8,3.13l.03.04c1.4-.36,2.82-.66,4.2-1.09,7.42-2.28,14.14-5.79,19.7-11.32,1.75-1.74,3.62-3.36,5.44-5.03-.14-.32-.28-.64-.42-.96-1.73,0-3.58-.41-5.17.07-5.58,1.7-11.09,3.66-16.59,5.62-12.53,4.45-24.62,4.66-35.89-3.53-1.16-.84-2.22-1.81-3.22-3.34,18,6.06,34.66,2.58,50.92-5.95-2.06-4.15-5.35-6.62-9.68-6.62-7.3,0-14.63.4-21.91,1.04-11.57,1.02-22.88.68-33.59-4.48-5.93-2.86-10.99-8.02-13.07-14.1,9.4,7.07,18.97,11.51,29.73,11.31,10.49-.19,20.97-1.55,32.03-2.44-1.1-4.89-3.54-7.56-7.07-8.51-4.62-1.24-9.45-2.17-14.21-2.29-9.2-.23-18.44.36-27.41-2.34C16.21,108.34,5.36,96.58.86,78.87c-.62-2.44-.59-5.05-.86-7.58.32-.06.64-.12.96-.17.8,1.57,1.69,3.09,2.37,4.71,7.51,17.82,20.9,28.2,39.88,31.22,5.86.93,11.85,1.08,17.78,1.63,4.28.4,8.55.88,13.15,1.37-1.27-5.29-4.24-9.19-8.8-11.12-6.49-2.75-13.22-5.03-20.03-6.86-10.77-2.9-21.36-6.15-30.02-13.51-2.97-2.53-5.23-5.9-7.81-8.89-.29-.49-.58-.98-.87-1.46,0,0,.03.04.03.04-.3-.5-.6-1.01-.9-1.51-.2-.45-.39-.9-.59-1.36-.26-.58-.53-1.16-.79-1.73-.14-.09-.16-.19-.06-.33-.36-.9-.71-1.8-1.07-2.7-.27-1-.55-2-.82-3-.22-1.49-.44-2.98-.66-4.47-.05-.49-.09-.99-.14-1.48.34-1.03.68-2.06,1.03-3.12.48.35.85.62,1.23.9.13.11.16.23.07.38.17.63.33,1.26.5,1.9.42.75.85,1.5,1.27,2.25.21.58.41,1.15.61,1.73.46.86.91,1.72,1.37,2.58,0,0-.02-.04-.02-.04.49.78.99,1.57,1.48,2.35.26.4.51.81.77,1.21.45.6.9,1.21,1.36,1.81,0,0-.01-.01-.01-.01.32.45.64.9.96,1.35,0,0-.04-.01-.04-.01.23.27.47.55.71.82,0,0-.04-.03-.04-.03.25.27.5.54.75.81,0,0-.01-.04-.01-.04.74.77,1.48,1.54,2.21,2.31,0,0-.04-.02-.04-.02.27.25.54.5.81.75,0,0-.04-.04-.04-.04.26.26.53.52.79.78,0,0-.04-.04-.04-.04.28.24.55.48.83.72,0,0-.03-.03-.03-.03.27.23.55.47.82.7l-.23.08s.22-.1.22-.1c.43.33.87.66,1.3.99,0,0,0,0,0,0,.55.45,1.1.9,1.65,1.35,0,0-.04,0-.04,0,.28.23.56.46.83.69l-.19.07s.18-.1.18-.1c.47.3.94.6,1.41.89,0,0-.03-.02-.03-.02.29.22.58.44.86.67,0,0-.02-.04-.02-.04.48.29.96.58,1.43.87,0,0-.04-.01-.04-.01.35.23.71.46,1.06.68.16-.04.28,0,.35.15.31.21.61.41.92.62,0,0-.03-.04-.03-.04,1.01.51,2.01,1.03,3.02,1.54,0,0-.05-.02-.05-.02.51.25,1.02.51,1.52.76,0,0-.03-.02-.03-.02,3.28,1.54,6.48,3.27,9.86,4.56,2.28.87,4.8,1.14,7.21,1.67.75.23,1.5.46,2.25.69,1.13.43,2.25.86,3.38,1.28.14-.09.26-.07.36.07,2.15.94,4.3,1.89,6.45,2.83,0,0,.28.08.28.08,1.09.36,2.17.71,3.26,1.07.22-.32.44-.64.65-.96-.62-.93-1.25-1.87-1.87-2.8-.28-.62-.55-1.24-.83-1.87-.49-.83-.98-1.66-1.47-2.48,0,0,.05-.01.05-.01-.25-.29-.49-.57-.74-.86-.24-.4-.47-.81-.71-1.21-.25-.34-.5-.68-.74-1.02,0,0,0,.05,0,.05-.46-.55-.92-1.09-1.39-1.64-.24-.25-.47-.49-.71-.74-.5-.5-1-1.01-1.5-1.51,0,0,0,0,0,0-.53-.47-1.07-.94-1.6-1.41,0,0,.05.02.05.02-.28-.24-.57-.47-.85-.71,0,0,.03.05.03.05-1.98-1.28-3.96-2.56-5.93-3.84,0,0,.03.03.03.02-1.35-.73-2.69-1.45-4.04-2.18-.16.04-.29-.01-.38-.16-.8-.45-1.59-.89-2.39-1.34,0,0,.03.02.03.01-1.55-.76-3.11-1.53-4.66-2.29-.18.04-.33-.02-.44-.17-1.78-.96-3.56-1.92-5.34-2.87,0,0,.03.03.03.03-.83-.49-1.66-.98-2.49-1.47-.18.01-.31-.06-.41-.21-.62-.43-1.23-.85-1.85-1.28-.41-.25-.81-.51-1.22-.76-.29-.25-.58-.5-.86-.74,0,0,.03.05.03.05-.46-.32-.92-.63-1.37-.95,0,0,0,0,0,0-1.06-.93-2.11-1.87-3.17-2.8,0,0,.03-.02.03-.02-.26-.25-.52-.5-.78-.75l.15-.21s-.14.21-.14.21c-.25-.26-.51-.51-.76-.76l.11-.2s-.09.21-.09.21c-.25-.27-.5-.53-.74-.79,0,0,.03.03.03.03-.26-.26-.52-.52-.77-.78,0,0,0,.04,0,.04-1.02-1.24-2.04-2.48-3.05-3.71,0,0,.04,0,.04,0-.23-.28-.46-.56-.7-.84,0,0,0,.04,0,.04-.51-.75-1.03-1.51-1.54-2.26,0,0,.02.04.02.04-1-1.8-1.99-3.59-2.99-5.39,0,0-.08-.32-.08-.32-.78-3.59-1.67-7.16-2.31-10.78-.52-3-.74-6.05-1.1-9.08.1-.74.2-1.48.3-2.22.66-.52,1.33-1.03,1.99-1.55.1,1.02.21,2.03.31,3.05.23,1.24.46,2.49.69,3.73.08.5.17.99.25,1.49.26.99.52,1.98.78,2.97.12.59.23,1.19.34,1.78.46,1.15.91,2.29,1.37,3.43,0,0,.06.32.06.32.22.39.45.78.67,1.18.14.07.17.18.11.33.37.65.74,1.3,1.11,1.95.13.34.26.69.39,1.04.42.64.84,1.29,1.26,1.93.15.08.21.2.17.36.24.35.48.7.71,1.05,0,0-.01-.05-.01-.05.43.55.86,1.1,1.3,1.65.16.08.24.21.25.39.7.85,1.4,1.71,2.11,2.56,0,0-.01-.01-.01-.01.33.43.66.86,1,1.29,0,0-.02,0-.02,0,.24.25.48.5.72.75l-.21.16s.2-.18.19-.18c.41.34.83.68,1.25,1.03,0,0,.01.01.01.01.5.49,1.01.97,1.51,1.46,0,0,0,0,0,0,.27.24.53.48.8.71,0,0-.02-.02-.02-.02.55.48,1.1.97,1.65,1.45.22.19.45.39.67.58.28.27.56.55.84.82,0,0-.02-.05-.03-.05.45.33.89.65,1.34.98,0,0,0,0,0,0,.56.44,1.11.88,1.67,1.32,0,0-.04-.02-.04-.01.75.51,1.51,1.02,2.27,1.53,0,0-.05-.02-.05-.02,1.57,1,3.13,2,4.7,3.01.42.23.84.47,1.25.7.29.26.57.51.86.76,0,0-.03-.06-.03-.05.48.28.97.56,1.46.85,0,0-.04,0-.04,0,.36.23.72.46,1.07.68.35.16.69.32,1.04.48.53.4,1.06.81,1.6,1.21,1.46.82,2.92,1.64,4.38,2.46,9.6,6.47,18.29,13.89,24.72,23.67l.89,1.46-.06-.04c.24.28.49.55.73.83v-.06c1.01,2.6,1.75,5.44,5.09,6.1Z"/><path class="cls-7" d="M10.88,0c.29.63.68,1.23.86,1.88,4.36,16.23,14.55,28.27,28.14,37.3,11.05,7.34,22.97,13.37,34.27,20.35,5.36,3.31,10.53,7.09,15.17,11.34,7.14,6.54,9.49,14.94,7.52,24.49-1.51,7.34,1.14,14.05,2.64,20.55-3.38-2.41-4.42-6.75-4.99-10.9-2.65-19.51-13.07-33.76-29.21-44.26-8.86-5.76-17.93-11.2-26.7-17.08-10.67-7.16-19.73-15.95-25.59-27.62-2.5-4.98-4.16-10.17-2.1-16.04Z"/><path class="cls-6" d="M74.04,90.5c-6.43-9.78-15.12-17.2-24.72-23.67-.2-2.34,1.56-3.13,3-2.32,4.38,2.45,8.51,5.34,12.74,8.07-.66.08-1.32.16-2.45.3,1.3,1.27,2.38,2.11,3.2,3.16,3.54,4.57,7.06,9.15,10.45,13.83.6.83,1.97,2.49-.68,2.83,0,0,.01.06.01.06-.24-.28-.49-.55-.73-.83,0,0,.06.04.06.04-.3-.49-.59-.98-.89-1.46Z"/><path class="cls-5" d="M75.59,92.69c2.65-.34,1.28-2,.68-2.83-3.39-4.68-6.91-9.27-10.45-13.83-.81-1.05-1.89-1.89-3.2-3.16,1.13-.14,1.79-.22,2.45-.3.24.27.47.53.71.8.26.18.51.37.77.55,7.18,5.16,12.49,11.64,14.24,20.54.27,1.38-.04,2.88-.08,4.33-3.34-.66-4.08-3.5-5.1-6.1Z"/><path class="cls-3" d="M108.66,45.92c-1.12-.35-2.23-.7-3.35-1.05,2.85-1.24,4.39-3.48,5.79-6.23.78-1.54,3.15-2.27,5.06-2.79-1.69,2.83-3.32,5.71-5.13,8.46-.49.74-1.56,1.09-2.37,1.62Z"/><path class="cls-8" d="M5.35,19.54c.35,3.03.57,6.08,1.1,9.08.63,3.62,1.53,7.19,2.31,10.78-3.58-6.2-4.59-12.84-3.4-19.86Z"/><path class="cls-9" d="M50.09,86.88c-2.41-.54-4.93-.8-7.21-1.67-3.37-1.29-6.58-3.02-9.86-4.56,5.69,2.08,11.38,4.15,17.07,6.23Z"/><path class="cls-10" d="M3.87,49.44c-.38-.27-.76-.55-1.23-.9-.35,1.06-.69,2.09-1.03,3.12-.27-3.5-.53-7-.8-10.5.35-.07.69-.13,1.04-.2.67,2.82,1.35,5.65,2.02,8.47Z"/><path class="cls-1" d="M100.82,47.83c.81.78,1.5,1.85,2.47,2.27,1.36.59,2.92.68,4.4.99-2.88.15-5.76.29-9.63.49,1.22-1.65,1.99-2.7,2.76-3.75Z"/><path class="cls-8" d="M7.64,15.78c-.66.52-1.33,1.03-1.99,1.55.3-1.86.6-3.72.9-5.59l1.09.06v3.98Z"/><path class="cls-2" d="M114.11,169.96c-.54.02-1.09.04-1.63.07.41-1.71.82-3.42,1.24-5.13.47.08.93.17,1.4.25-.34,1.6-.67,3.21-1.01,4.81Z"/><path class="cls-1" d="M114.7,53.4c1.55.03,3.19-.24,4.62.2.83.25,1.3,1.64,1.94,2.51-2.19-.9-4.37-1.81-6.56-2.71Z"/><path class="cls-8" d="M48.5,71.97c1.98,1.28,3.96,2.56,5.93,3.84-1.98-1.28-3.96-2.56-5.93-3.84Z"/><path class="cls-2" d="M115.1,174.3c-.42,1.77-.84,3.54-1.26,5.3l-1.05-.19c.33-1.74.65-3.48.98-5.23.44.04.88.07,1.32.11Z"/><path class="cls-9" d="M62.52,91.75c-2.15-.94-4.3-1.89-6.45-2.83,2.15.94,4.3,1.89,6.45,2.83Z"/><path class="cls-8" d="M8.83,39.72c1,1.79,2,3.59,2.99,5.39-1-1.79-1.99-3.59-2.99-5.39Z"/><path class="cls-8" d="M31.31,63c1.78.96,3.56,1.92,5.34,2.87-1.78-.96-3.56-1.92-5.34-2.87Z"/><path class="cls-8" d="M37.72,59.74c-1.57-1-3.13-2-4.7-3.01,1.57,1,3.13,2,4.7,3.01Z"/><path class="cls-10" d="M1.75,53.15c.22,1.49.44,2.98.66,4.47-.22-1.49-.44-2.98-.66-4.47Z"/><path class="cls-9" d="M64.84,89.14c.62.93,1.25,1.87,1.87,2.8-.22.32-.44.64-.65.96-1.09-.36-2.17-.71-3.26-1.07,2.68.63,2.46-.96,2.04-2.69Z"/><path class="cls-8" d="M13.99,48.14c1.02,1.24,2.04,2.48,3.05,3.71-1.02-1.24-2.04-2.48-3.05-3.71Z"/><path class="cls-8" d="M37.09,66.04c1.56.76,3.11,1.52,4.66,2.29-1.56-.76-3.11-1.52-4.66-2.29Z"/><path class="cls-8" d="M20.01,54.89c1.06.93,2.11,1.87,3.17,2.8-1.06-.93-2.11-1.87-3.17-2.8Z"/><path class="cls-8" d="M44.5,69.82c1.35.73,2.69,1.45,4.04,2.18-1.35-.73-2.69-1.45-4.04-2.18Z"/><path class="cls-1" d="M121.37,58.44c-.4,1.45-.81,2.9-1.21,4.35.4-1.45.81-2.9,1.21-4.35Z"/><path class="cls-8" d="M9.67,27.02c-.26-.99-.52-1.98-.78-2.97.26.99.52,1.98.78,2.97Z"/><path class="cls-8" d="M8.64,22.55c-.23-1.24-.46-2.49-.69-3.73.23,1.24.46,2.49.69,3.73Z"/><path class="cls-8" d="M11.38,32.23c-.46-1.14-.91-2.29-1.37-3.43.46,1.14.91,2.29,1.37,3.43Z"/><path class="cls-8" d="M19.49,44.92c-.7-.85-1.4-1.71-2.11-2.56.7.85,1.4,1.71,2.11,2.56Z"/><path class="cls-9" d="M15.81,68.8c-.74-.77-1.48-1.54-2.21-2.31.74.77,1.48,1.54,2.21,2.31Z"/><path class="cls-9" d="M55.71,88.85c-1.13-.43-2.25-.86-3.38-1.28,1.13.43,2.25.86,3.38,1.28Z"/><path class="cls-9" d="M5.72,53.97c-.42-.75-.85-1.5-1.27-2.25.02-.26.04-.51.07-.77.4,1.01.81,2.01,1.21,3.02Z"/><path class="cls-1" d="M109.18,51.48c.98.36,1.97.71,2.95,1.07-.98-.36-1.97-.71-2.95-1.07Z"/><path class="cls-9" d="M31.58,79.92c-1.01-.51-2.01-1.03-3.02-1.54,1.01.51,2.01,1.03,3.02,1.54Z"/><path class="cls-10" d="M3.23,60.61c.36.9.71,1.8,1.07,2.7-.36-.9-.71-1.8-1.07-2.7Z"/><path class="cls-8" d="M11.8,45.07c.51.75,1.03,1.51,1.54,2.26-.51-.75-1.03-1.51-1.54-2.26Z"/><path class="cls-3" d="M104.65,44.93c-.81.46-1.62.91-2.44,1.37.81-.46,1.62-.91,2.44-1.37Z"/><path class="cls-9" d="M62.54,84.79c.49.83.98,1.65,1.47,2.48-.49-.83-.98-1.66-1.47-2.48Z"/><path class="cls-1" d="M119.3,64.67c-.45.87-.91,1.74-1.36,2.61.45-.87.91-1.74,1.36-2.61Z"/><path class="cls-9" d="M9.16,60.59c-.49-.78-.99-1.56-1.48-2.35.49.78.99,1.56,1.48,2.35Z"/><path class="cls-8" d="M41.73,68.32c.8.45,1.59.89,2.39,1.34-.8-.45-1.59-.89-2.39-1.34Z"/><path class="cls-8" d="M28.85,61.56c.83.49,1.66.98,2.49,1.47-.83-.49-1.66-.98-2.49-1.47Z"/><path class="cls-8" d="M33.07,56.75c-.76-.51-1.51-1.02-2.27-1.53.76.51,1.51,1.02,2.27,1.53Z"/><path class="cls-9" d="M7.7,58.28c-.46-.86-.92-1.72-1.37-2.58.46.86.91,1.72,1.37,2.58Z"/><path class="cls-8" d="M55.21,76.46c.53.47,1.07.94,1.6,1.41-.53-.47-1.07-.94-1.6-1.41Z"/><path class="cls-8" d="M13.33,36c-.37-.65-.74-1.3-1.11-1.95.37.65.74,1.3,1.11,1.95Z"/><path class="cls-8" d="M14.98,38.97c-.42-.64-.84-1.29-1.26-1.93.42.64.84,1.29,1.26,1.93Z"/><path class="cls-8" d="M59.02,80.11c.46.55.93,1.09,1.39,1.64-.46-.55-.92-1.09-1.39-1.64Z"/><path class="cls-8" d="M17.14,41.97c-.43-.55-.86-1.1-1.3-1.65.43.55.86,1.1,1.3,1.65Z"/><path class="cls-2" d="M112.22,170.66c-.31.79-.63,1.58-.94,2.38.31-.79.63-1.58.94-2.38Z"/><path class="cls-8" d="M26.36,51.59c-.55-.48-1.1-.97-1.65-1.45.55.48,1.1.97,1.65,1.45Z"/><path class="cls-8" d="M30.85,55.23c-.56-.44-1.11-.88-1.67-1.32.56.44,1.11.88,1.67,1.32Z"/><path class="cls-8" d="M26.59,60.07c.62.43,1.23.85,1.85,1.28-.62-.43-1.23-.85-1.85-1.28Z"/><path class="cls-9" d="M11.29,63.61c-.45-.6-.91-1.21-1.36-1.81.45.6.9,1.21,1.36,1.81Z"/><path class="cls-2" d="M108.82,179.3c-.41.82-.81,1.64-1.22,2.46.41-.82.81-1.64,1.22-2.46Z"/><path class="cls-8" d="M44.93,64.36c-.53-.4-1.06-.81-1.6-1.21.53.4,1.06.81,1.6,1.21Z"/><path class="cls-9" d="M21.86,73.95c-.55-.45-1.1-.9-1.65-1.35.55.45,1.1.9,1.65,1.35Z"/><path class="cls-8" d="M56.8,77.86c.5.5,1,1.01,1.5,1.51-.5-.5-1-1.01-1.5-1.51Z"/><path class="cls-8" d="M23.93,49.44c-.5-.49-1.01-.97-1.51-1.46.5.49,1.01.97,1.51,1.46Z"/><path class="cls-8" d="M29.19,53.91c-.45-.33-.89-.65-1.34-.98.45.32.89.65,1.34.98Z"/><path class="cls-1" d="M112.5,52.62c.63.25,1.25.49,1.88.74-.63-.25-1.25-.49-1.88-.74Z"/><path class="cls-8" d="M20.48,46.2c-.33-.43-.66-.86-1-1.29.33.43.66.86,1,1.29Z"/><path class="cls-1" d="M117.97,67.26c-.31.5-.61,1-.92,1.51.31-.5.61-1,.92-1.51Z"/><path class="cls-8" d="M41.26,62c-.49-.28-.97-.56-1.46-.85.49.28.97.56,1.46.85Z"/><path class="cls-9" d="M20.22,72.61c-.43-.33-.87-.66-1.3-.99.44.33.87.66,1.3.99Z"/><path class="cls-9" d="M12.23,64.95c-.32-.45-.64-.9-.96-1.35.32.45.64.9.96,1.35Z"/><path class="cls-8" d="M23.17,57.68c.46.31.92.63,1.37.95-.46-.31-.92-.63-1.37-.95Z"/><path class="cls-10" d="M5.74,66.72c.3.5.6,1.01.9,1.51-.3-.5-.6-1.01-.9-1.51Z"/><path class="cls-9" d="M26.29,76.99c-.48-.29-.96-.58-1.43-.87.48.29.96.58,1.43.87Z"/><path class="cls-1" d="M120.18,62.76c-.27.54-.53,1.08-.8,1.62.27-.54.53-1.08.8-1.62Z"/><path class="cls-9" d="M33.05,80.66c-.51-.25-1.02-.51-1.52-.76.51.25,1.02.51,1.52.76Z"/><path class="cls-10" d="M4.36,63.63c.26.58.53,1.16.79,1.73-.26-.58-.53-1.16-.79-1.73Z"/><path class="cls-10" d="M4.51,50.95c-.02.25-.04.51-.07.77-.17-.63-.33-1.26-.5-1.9.19.38.38.75.56,1.13Z"/><path class="cls-10" d="M6.61,68.2c.29.49.58.98.87,1.46-.29-.49-.58-.98-.87-1.46Z"/><path class="cls-8" d="M22.41,47.96c-.42-.34-.83-.68-1.25-1.03.42.34.83.68,1.25,1.03Z"/><path class="cls-9" d="M24.05,75.5c-.47-.3-.94-.6-1.41-.89.47.3.94.6,1.41.89Z"/><path class="cls-9" d="M18.92,71.64c-.27-.23-.55-.46-.82-.7.27.23.55.46.82.7Z"/><path class="cls-8" d="M27.88,52.99c-.28-.27-.56-.55-.84-.82.28.27.56.55.84.82Z"/><path class="cls-6" d="M66.53,73.92c-.26-.18-.51-.37-.77-.55.26.18.51.37.77.55Z"/><path class="cls-9" d="M22.65,74.63c-.28-.23-.56-.46-.83-.69.28.23.56.46.83.69Z"/><path class="cls-8" d="M17.79,52.57c.25.26.5.53.74.79-.25-.26-.5-.53-.74-.79Z"/><path class="cls-9" d="M24.88,76.15c-.29-.22-.58-.44-.86-.67.29.22.58.44.86.67Z"/><path class="cls-8" d="M12.11,33.73c-.22-.39-.45-.78-.67-1.18.22.39.45.78.67,1.18Z"/><path class="cls-8" d="M15.86,40.38c-.24-.35-.48-.7-.71-1.05.24.35.48.7.71,1.05Z"/><path class="cls-8" d="M39.83,61.21c-.29-.25-.57-.51-.86-.76.29.25.57.51.86.76Z"/><path class="cls-9" d="M27.32,77.66c-.35-.23-.71-.46-1.06-.68.35.23.71.46,1.06.68Z"/><path class="cls-9" d="M28.59,78.43c-.31-.21-.61-.41-.92-.62.31.21.61.41.92.62Z"/><path class="cls-9" d="M12.9,65.75c-.24-.27-.47-.55-.71-.82.24.27.47.55.71.82Z"/><path class="cls-8" d="M17.05,51.82c.26.26.52.52.77.78-.26-.26-.52-.52-.77-.78Z"/><path class="cls-8" d="M24.51,58.57c.29.25.58.5.86.74-.29-.25-.58-.5-.86-.74Z"/><path class="cls-8" d="M19.26,54.11c.26.25.52.5.78.75-.26-.25-.52-.5-.78-.75Z"/><path class="cls-8" d="M42.3,62.67c-.36-.23-.72-.46-1.07-.68.36.23.72.46,1.07.68Z"/><path class="cls-8" d="M60.4,81.7c.25.34.5.68.74,1.02-.25-.34-.5-.68-.74-1.02Z"/><path class="cls-9" d="M61.85,83.92c.25.28.49.57.74.86-.25-.28-.49-.57-.74-.86Z"/><path class="cls-9" d="M13.61,66.54c-.25-.27-.5-.54-.75-.81.25.27.5.54.75.81Z"/><path class="cls-8" d="M24.74,50.16c-.27-.24-.53-.48-.8-.71.27.24.53.48.8.71Z"/><path class="cls-9" d="M16.59,69.54c-.27-.25-.54-.5-.81-.75.27.25.54.5.81.75Z"/><path class="cls-1" d="M101.58,46.99c-.26.29-.51.59-.77.88.26-.29.51-.59.77-.88Z"/><path class="cls-9" d="M17.34,70.28c-.26-.26-.53-.52-.79-.78.26.26.53.52.79.78Z"/><path class="cls-8" d="M18.51,53.36c.25.25.51.51.76.76-.25-.25-.51-.51-.76-.76Z"/><polygon class="cls-4" points="79.98 167.54 79.9 167.68 80.01 167.58 79.98 167.54"/><path class="cls-8" d="M54.41,75.76c.28.24.57.47.85.71-.28-.24-.57-.47-.85-.71Z"/><path class="cls-2" d="M110.76,174.48c.03.25-.04.46-.21.64-.04-.19-.08-.37-.09-.56,0-.02.2-.05.31-.07Z"/><path class="cls-8" d="M13.33,47.29c.23.28.47.56.7.84-.23-.28-.46-.56-.7-.84Z"/><path class="cls-8" d="M21.18,46.96c-.24-.25-.48-.5-.72-.75.24.25.48.5.72.75Z"/><path class="cls-2" d="M110.09,176.37c-.11.28-.22.56-.33.84.11-.28.22-.56.33-.84Z"/><path class="cls-2" d="M109.47,177.84c-.14.29-.29.59-.43.88.14-.29.29-.59.43-.88Z"/><path class="cls-9" d="M18.13,70.97c-.28-.24-.55-.48-.83-.72.28.24.55.48.83.72Z"/><path class="cls-5" d="M74.04,90.5c.3.49.59.98.89,1.46-.3-.49-.59-.98-.89-1.46Z"/><path class="cls-5" d="M74.87,91.92c.24.28.49.55.73.83-.24-.28-.49-.55-.73-.83Z"/></svg>